<?xml version="1.0" encoding="utf-8" ?>
<svg baseProfile="full" height="150px" version="1.1" width="100px" xmlns="http://www.w3.org/2000/svg" xmlns:ev="http://www.w3.org/2001/xml-events" xmlns:xlink="http://www.w3.org/1999/xlink"><defs /><ellipse cx="50" cy="30" fill="none" rx="40" ry="20" stroke="green" stroke-width="2" /><line stroke="green" stroke-width="1" x1="30" x2="70" y1="10" y2="10" /><line stroke="green" stroke-width="1" x1="30" x2="70" y1="14" y2="14" /><line stroke="green" stroke-width="1" x1="30" x2="70" y1="18" y2="18" /><line stroke="green" stroke-width="1" x1="30" x2="70" y1="22" y2="22" /><line stroke="green" stroke-width="1" x1="30" x2="70" y1="26" y2="26" /><line stroke="green" stroke-width="1" x1="30" x2="70" y1="30" y2="30" /><line stroke="green" stroke-width="1" x1="30" x2="70" y1="34" y2="34" /><line stroke="green" stroke-width="1" x1="30" x2="70" y1="38" y2="38" /><line stroke="green" stroke-width="1" x1="30" x2="70" y1="42" y2="42" /><line stroke="green" stroke-width="1" x1="30" x2="70" y1="46" y2="46" /><ellipse cx="50" cy="70" fill="none" rx="40" ry="20" stroke="green" stroke-width="2" /><line stroke="green" stroke-width="1" x1="30" x2="70" y1="50" y2="50" /><line stroke="green" stroke-width="1" x1="30" x2="70" y1="54" y2="54" /><line stroke="green" stroke-width="1" x1="30" x2="70" y1="58" y2="58" /><line stroke="green" stroke-width="1" x1="30" x2="70" y1="62" y2="62" /><line stroke="green" stroke-width="1" x1="30" x2="70" y1="66" y2="66" /><line stroke="green" stroke-width="1" x1="30" x2="70" y1="70" y2="70" /><line stroke="green" stroke-width="1" x1="30" x2="70" y1="74" y2="74" /><line stroke="green" stroke-width="1" x1="30" x2="70" y1="78" y2="78" /><line stroke="green" stroke-width="1" x1="30" x2="70" y1="82" y2="82" /><line stroke="green" stroke-width="1" x1="30" x2="70" y1="86" y2="86" /><ellipse cx="50" cy="110" fill="none" rx="40" ry="20" stroke="green" stroke-width="2" /><line stroke="green" stroke-width="1" x1="30" x2="70" y1="90" y2="90" /><line stroke="green" stroke-width="1" x1="30" x2="70" y1="94" y2="94" /><line stroke="green" stroke-width="1" x1="30" x2="70" y1="98" y2="98" /><line stroke="green" stroke-width="1" x1="30" x2="70" y1="102" y2="102" /><line stroke="green" stroke-width="1" x1="30" x2="70" y1="106" y2="106" /><line stroke="green" stroke-width="1" x1="30" x2="70" y1="110" y2="110" /><line stroke="green" stroke-width="1" x1="30" x2="70" y1="114" y2="114" /><line stroke="green" stroke-width="1" x1="30" x2="70" y1="118" y2="118" /><line stroke="green" stroke-width="1" x1="30" x2="70" y1="122" y2="122" /><line stroke="green" stroke-width="1" x1="30" x2="70" y1="126" y2="126" /></svg>